<svg id="Layer_1" data-name="Layer 1" xmlns="http://www.w3.org/2000/svg" viewBox="0 0 505.42 82.34"><defs><style>.cls-1{fill:#fff;}.cls-2{fill:#0bd2b1;}</style></defs><path class="cls-1" d="M508.71,295.16l-13.52,1.23c-.72-2.57-1.25-4.46-1.8-6.46-17.23,10.06-32.2,8.75-42.58-3.43-10-11.68-10.13-30.74-.38-42.38,10.2-12.17,25.37-13.78,43.39-3.93V217.92L508.71,219Zm-14.07-29.81c.1-10.84-7.83-19.24-18.34-19.42-10.18-.18-18.93,8.53-19,18.92a18.75,18.75,0,0,0,18.52,19.23C486.41,284.25,494.55,276.16,494.64,265.35Z" transform="translate(-3.29 -214.83)"/><path class="cls-1" d="M216.62,240.28c0-5.85.42-10.76-.1-15.57-.69-6.32,2.77-6.52,7.66-6.72,5.64-.24,7.32,1.55,7.24,7.16-.31,21.11-.07,42.23-.19,63.35,0,3.09,1.74,8-4.34,7.44-4.22-.38-11.21,3.53-10.39-7.23-8.24,7.69-17.32,10.06-26.42,7.29a39.31,39.31,0,0,1-17-10.6c-10-11-9.23-30.54.41-41.62C184,231.75,199.11,230.19,216.62,240.28Zm-36.4,24.79c0,10.8,8,18.95,18.6,19,10.47.07,18.69-8.25,18.75-18.95.05-10.47-8.47-19.21-18.71-19.22A18.78,18.78,0,0,0,180.22,265.07Z" transform="translate(-3.29 -214.83)"/><path class="cls-1" d="M83.66,237.64l-12,7.61c-5.71-9.31-14.09-14.57-24.9-12.22-5.69,1.24-11.9,4.15-15.87,8.21-9.82,10-8,26.64,2.71,35.84,11.72,10,25.88,7.18,39.28-8.12l11.63,6C77.18,293.4,53.87,302,34,294c-22.62-9.12-28.66-31.3-16.62-60.57-4.27-1.32-9.14-1.84-12.58-4.31-1.77-1.26-1-6-1.51-10.34H20.9c10.21,0,20.43-.14,30.65,0C65.4,219,76.58,225.53,83.66,237.64Z" transform="translate(-3.29 -214.83)"/><path class="cls-1" d="M300.92,270.11H251.69c.9,7.67,5.38,11.55,11.42,13.44,10.3,3.22,18.58-.12,24.54-9.41l10.59,6.05c-5.44,13.75-22.78,20.41-39.09,15.22S234,274,238.27,257.3a32.25,32.25,0,0,1,36.93-23.61C292.74,236.84,303,250.76,300.92,270.11ZM252.57,258H286c-2.17-8.13-7.18-12-15.37-12.32C262,245.29,255.81,249.35,252.57,258Z" transform="translate(-3.29 -214.83)"/><path class="cls-1" d="M322,218.14v23c11.06-8,21.69-10.16,33.05-5.07a28.43,28.43,0,0,1,15.81,17.19c6.67,19.19-2.64,37.61-20.06,42.36-.48-8.37-1.52-17-1.22-25.67.14-3.95,2.57-8,4.65-11.64,1.18-2.08,3.73-3.4,5.63-5-7.24-.93-14.31-1.94-21.4-2.73-7.78-.88-15,4.63-18.48,12.68-2.32,5.34-5.9,10.14-9.92,16.85-1.36-3.2-2-3.94-2-4.69-.07-17.35,0-34.71-.15-52.07,0-4,1.55-5.49,5.48-5.2C315.92,218.3,318.48,218.14,322,218.14Z" transform="translate(-3.29 -214.83)"/><path class="cls-1" d="M129.15,296.85c-17.93,0-32.13-13.71-32.39-31.4s14.27-32.18,32.45-32.11a32,32,0,0,1,32.09,31.83C161.29,282.66,147,296.79,129.15,296.85Zm-.43-50.11a18.14,18.14,0,0,0-17.89,18.75c.18,10.16,8.65,18.59,18.49,18.42s18.15-9,17.93-19A18.15,18.15,0,0,0,128.72,246.74Z" transform="translate(-3.29 -214.83)"/><path class="cls-1" d="M437.5,249.82c-1.59-.43-2.67-.79-3.78-1-11.41-2.46-17.49,2-17.87,13.5-.3,9.13-.09,18.29-.14,27.44,0,1.82-.2,3.65-.34,5.89H402.16V235.2h13.22c.21,1.71.44,3.52.76,6.14,7.71-7.19,16.09-8.71,26.17-4.17C440.69,241.44,439.15,245.47,437.5,249.82Z" transform="translate(-3.29 -214.83)"/><path class="cls-1" d="M379.43,295V235h13.2V295Z" transform="translate(-3.29 -214.83)"/><circle class="cls-2" cx="382.74" cy="8.32" r="8.32"/><circle class="cls-2" cx="45.79" cy="42.71" r="8.32"/></svg>